<mxfile host="Electron" modified="2024-05-03T09:30:40.869Z" agent="Mozilla/5.0 (Windows NT 10.0; Win64; x64) AppleWebKit/537.36 (KHTML, like Gecko) draw.io/24.2.5 Chrome/120.0.6099.109 Electron/28.1.0 Safari/537.36" etag="uvDeXzmRO4E11-TmdzRA" version="24.2.5" type="device">
  <diagram name="Page-1" id="BRu_jPk0xu0-nfqMM_ob">
    <mxGraphModel dx="4100" dy="4842" grid="1" gridSize="10" guides="1" tooltips="1" connect="1" arrows="1" fold="1" page="0" pageScale="1" pageWidth="850" pageHeight="1100" math="0" shadow="0">
      <root>
        <mxCell id="0" />
        <mxCell id="1" parent="0" />
        <mxCell id="1kAJ-ZMQThqI9q0mJajA-1" value="" style="group" vertex="1" connectable="0" parent="1">
          <mxGeometry x="-1870" y="-3219.996577181208" width="529" height="429.9865771812081" as="geometry" />
        </mxCell>
        <mxCell id="1kAJ-ZMQThqI9q0mJajA-2" value="" style="rounded=0;whiteSpace=wrap;html=1;" vertex="1" parent="1kAJ-ZMQThqI9q0mJajA-1">
          <mxGeometry x="11.235949775950974" y="37.02972220993703" width="517.764050224049" height="392.9568549712711" as="geometry" />
        </mxCell>
        <mxCell id="1kAJ-ZMQThqI9q0mJajA-3" value="" style="rounded=0;whiteSpace=wrap;html=1;fontStyle=1" vertex="1" parent="1kAJ-ZMQThqI9q0mJajA-1">
          <mxGeometry x="90.77563739798654" y="67.15641442440113" width="348.7044099931826" height="328.7739019926303" as="geometry" />
        </mxCell>
        <mxCell id="1kAJ-ZMQThqI9q0mJajA-4" value="Login" style="text;html=1;align=center;verticalAlign=middle;resizable=0;points=[];autosize=1;strokeColor=none;fillColor=none;fontSize=20;" vertex="1" parent="1kAJ-ZMQThqI9q0mJajA-1">
          <mxGeometry x="221.1239467709802" y="68.46627060763872" width="67" height="36" as="geometry" />
        </mxCell>
        <mxCell id="1kAJ-ZMQThqI9q0mJajA-5" value="Enter Password here" style="rounded=0;whiteSpace=wrap;html=1;textOpacity=50;" vertex="1" parent="1kAJ-ZMQThqI9q0mJajA-1">
          <mxGeometry x="225.35799858356" y="188.97303946549525" width="192.34692520005558" height="37.985829313889546" as="geometry" />
        </mxCell>
        <mxCell id="1kAJ-ZMQThqI9q0mJajA-6" value="&lt;font style=&quot;font-size: 16px;&quot;&gt;Password :&lt;/font&gt;" style="text;html=1;align=center;verticalAlign=middle;resizable=0;points=[];autosize=1;strokeColor=none;fillColor=none;" vertex="1" parent="1kAJ-ZMQThqI9q0mJajA-1">
          <mxGeometry x="103.17536056339893" y="186.3533270990201" width="97" height="31" as="geometry" />
        </mxCell>
        <mxCell id="1kAJ-ZMQThqI9q0mJajA-7" value="Enter Email here" style="rounded=0;whiteSpace=wrap;html=1;textOpacity=50;" vertex="1" parent="1kAJ-ZMQThqI9q0mJajA-1">
          <mxGeometry x="225.35799858356" y="135.26893595275484" width="192.34692520005558" height="37.985829313889546" as="geometry" />
        </mxCell>
        <mxCell id="1kAJ-ZMQThqI9q0mJajA-8" value="&lt;font style=&quot;font-size: 16px;&quot;&gt;Email :&lt;/font&gt;" style="text;html=1;align=center;verticalAlign=middle;resizable=0;points=[];autosize=1;strokeColor=none;fillColor=none;" vertex="1" parent="1kAJ-ZMQThqI9q0mJajA-1">
          <mxGeometry x="104.38508965270748" y="145.74778541865538" width="67" height="31" as="geometry" />
        </mxCell>
        <mxCell id="1kAJ-ZMQThqI9q0mJajA-9" value="&lt;font color=&quot;#ff0000&quot;&gt;Login&lt;/font&gt;" style="rounded=0;whiteSpace=wrap;html=1;" vertex="1" parent="1kAJ-ZMQThqI9q0mJajA-1">
          <mxGeometry x="152.77425322504848" y="333.057219621628" width="72.58374535851155" height="37.985829313889546" as="geometry" />
        </mxCell>
        <mxCell id="1kAJ-ZMQThqI9q0mJajA-10" value="Cancel" style="rounded=0;whiteSpace=wrap;html=1;" vertex="1" parent="1kAJ-ZMQThqI9q0mJajA-1">
          <mxGeometry x="274.35202670055537" y="333.057219621628" width="72.58374535851155" height="37.985829313889546" as="geometry" />
        </mxCell>
        <mxCell id="1kAJ-ZMQThqI9q0mJajA-11" value="&lt;span style=&quot;font-size: 16px;&quot;&gt;Forgot password&lt;/span&gt;" style="text;html=1;align=center;verticalAlign=middle;resizable=0;points=[];autosize=1;strokeColor=none;fillColor=none;" vertex="1" parent="1kAJ-ZMQThqI9q0mJajA-1">
          <mxGeometry x="259.99994234956944" y="239.9925408418379" width="140" height="30" as="geometry" />
        </mxCell>
        <mxCell id="1kAJ-ZMQThqI9q0mJajA-12" value="&lt;font style=&quot;font-size: 12px;&quot;&gt;*Popup&lt;/font&gt;" style="text;html=1;align=center;verticalAlign=middle;resizable=0;points=[];autosize=1;strokeColor=none;fillColor=none;fontColor=#f02719;" vertex="1" parent="1kAJ-ZMQThqI9q0mJajA-1">
          <mxGeometry x="83.81969513446253" y="34.41000984346189" width="57" height="26" as="geometry" />
        </mxCell>
        <mxCell id="1kAJ-ZMQThqI9q0mJajA-13" value="&lt;b style=&quot;font-size: 14px;&quot;&gt;LOGIN PAGE&lt;/b&gt;" style="text;html=1;align=center;verticalAlign=middle;resizable=0;points=[];autosize=1;strokeColor=none;fillColor=none;" vertex="1" parent="1kAJ-ZMQThqI9q0mJajA-1">
          <mxGeometry x="-2" width="110" height="30" as="geometry" />
        </mxCell>
        <mxCell id="1kAJ-ZMQThqI9q0mJajA-14" value="" style="group" vertex="1" connectable="0" parent="1">
          <mxGeometry x="-1250" y="-3220" width="650" height="540" as="geometry" />
        </mxCell>
        <mxCell id="1kAJ-ZMQThqI9q0mJajA-15" value="&lt;b&gt;&lt;font style=&quot;font-size: 18px;&quot;&gt;Forget password page&lt;/font&gt;&lt;/b&gt;" style="text;strokeColor=none;align=center;fillColor=none;html=1;verticalAlign=middle;whiteSpace=wrap;rounded=0;" vertex="1" parent="1kAJ-ZMQThqI9q0mJajA-14">
          <mxGeometry width="196.0179487179487" height="28.471698113207548" as="geometry" />
        </mxCell>
        <mxCell id="1kAJ-ZMQThqI9q0mJajA-16" value="" style="rounded=0;whiteSpace=wrap;html=1;" vertex="1" parent="1kAJ-ZMQThqI9q0mJajA-14">
          <mxGeometry x="4.67" y="63" width="541.38" height="401" as="geometry" />
        </mxCell>
        <mxCell id="1kAJ-ZMQThqI9q0mJajA-17" value="&lt;b&gt;Email :&lt;/b&gt;" style="text;strokeColor=none;align=center;fillColor=none;html=1;verticalAlign=middle;whiteSpace=wrap;rounded=0;" vertex="1" parent="1kAJ-ZMQThqI9q0mJajA-14">
          <mxGeometry x="70.00641025641025" y="151.8490566037736" width="56.0051282051282" height="28.471698113207548" as="geometry" />
        </mxCell>
        <mxCell id="1kAJ-ZMQThqI9q0mJajA-18" value="&lt;b&gt;Security Question :&lt;/b&gt;" style="text;strokeColor=none;align=center;fillColor=none;html=1;verticalAlign=middle;whiteSpace=wrap;rounded=0;" vertex="1" parent="1kAJ-ZMQThqI9q0mJajA-14">
          <mxGeometry x="58" y="208.79" width="124.02" height="28.47" as="geometry" />
        </mxCell>
        <mxCell id="1kAJ-ZMQThqI9q0mJajA-19" value="&lt;b&gt;Answer :&amp;nbsp;&lt;/b&gt;" style="text;strokeColor=none;align=center;fillColor=none;html=1;verticalAlign=middle;whiteSpace=wrap;rounded=0;" vertex="1" parent="1kAJ-ZMQThqI9q0mJajA-14">
          <mxGeometry x="70.00641025641025" y="251.5" width="65.33931623931623" height="28.471698113207548" as="geometry" />
        </mxCell>
        <mxCell id="1kAJ-ZMQThqI9q0mJajA-20" value="abc@gmail.com" style="rounded=1;whiteSpace=wrap;html=1;" vertex="1" parent="1kAJ-ZMQThqI9q0mJajA-14">
          <mxGeometry x="205.35213675213674" y="156.5943396226415" width="112.0102564102564" height="18.9811320754717" as="geometry" />
        </mxCell>
        <mxCell id="1kAJ-ZMQThqI9q0mJajA-21" value="your pet name" style="rounded=1;whiteSpace=wrap;html=1;" vertex="1" parent="1kAJ-ZMQThqI9q0mJajA-14">
          <mxGeometry x="205.35213675213674" y="208.7924528301887" width="154.01410256410256" height="18.9811320754717" as="geometry" />
        </mxCell>
        <mxCell id="1kAJ-ZMQThqI9q0mJajA-22" value="raju" style="rounded=1;whiteSpace=wrap;html=1;" vertex="1" parent="1kAJ-ZMQThqI9q0mJajA-14">
          <mxGeometry x="205.35213675213674" y="260.99056603773585" width="112.0102564102564" height="18.9811320754717" as="geometry" />
        </mxCell>
        <mxCell id="1kAJ-ZMQThqI9q0mJajA-23" value="" style="strokeWidth=2;html=1;shape=mxgraph.flowchart.merge_or_storage;whiteSpace=wrap;" vertex="1" parent="1kAJ-ZMQThqI9q0mJajA-14">
          <mxGeometry x="331.3636752136752" y="213.53773584905662" width="18.668376068376066" height="9.49056603773585" as="geometry" />
        </mxCell>
        <mxCell id="1kAJ-ZMQThqI9q0mJajA-24" value="Submit" style="rounded=1;whiteSpace=wrap;html=1;fillColor=#d5e8d4;strokeColor=#82b366;" vertex="1" parent="1kAJ-ZMQThqI9q0mJajA-14">
          <mxGeometry x="214.68632478632478" y="341.66037735849056" width="93.34188034188034" height="28.471698113207548" as="geometry" />
        </mxCell>
        <mxCell id="1kAJ-ZMQThqI9q0mJajA-25" value="" style="group" vertex="1" connectable="0" parent="1">
          <mxGeometry x="-549" y="-3213.0015384615385" width="587.5" height="466.6153846153845" as="geometry" />
        </mxCell>
        <mxCell id="1kAJ-ZMQThqI9q0mJajA-26" value="" style="rounded=0;whiteSpace=wrap;html=1;" vertex="1" parent="1kAJ-ZMQThqI9q0mJajA-25">
          <mxGeometry x="7.5" y="46.6615384615385" width="580" height="419.95384615384614" as="geometry" />
        </mxCell>
        <mxCell id="1kAJ-ZMQThqI9q0mJajA-27" value="&lt;b&gt;Old Password :&lt;/b&gt;" style="text;strokeColor=none;align=center;fillColor=none;html=1;verticalAlign=middle;whiteSpace=wrap;rounded=0;" vertex="1" parent="1kAJ-ZMQThqI9q0mJajA-25">
          <mxGeometry x="35" y="124.43076923076922" width="120" height="31.107692307692304" as="geometry" />
        </mxCell>
        <mxCell id="1kAJ-ZMQThqI9q0mJajA-28" value="" style="rounded=1;whiteSpace=wrap;html=1;" vertex="1" parent="1kAJ-ZMQThqI9q0mJajA-25">
          <mxGeometry x="217.5" y="129.61538461538464" width="157.5" height="20.738461538461536" as="geometry" />
        </mxCell>
        <mxCell id="1kAJ-ZMQThqI9q0mJajA-29" value="Change Password" style="rounded=1;whiteSpace=wrap;html=1;fillColor=#d5e8d4;strokeColor=#82b366;" vertex="1" parent="1kAJ-ZMQThqI9q0mJajA-25">
          <mxGeometry x="210" y="362.9230769230769" width="120" height="31.107692307692304" as="geometry" />
        </mxCell>
        <mxCell id="1kAJ-ZMQThqI9q0mJajA-30" value="&lt;b&gt;&lt;font style=&quot;font-size: 18px;&quot;&gt;Change Passsword Page&lt;/font&gt;&lt;/b&gt;" style="text;strokeColor=none;align=center;fillColor=none;html=1;verticalAlign=middle;whiteSpace=wrap;rounded=0;" vertex="1" parent="1kAJ-ZMQThqI9q0mJajA-25">
          <mxGeometry width="240" height="31.107692307692304" as="geometry" />
        </mxCell>
        <mxCell id="1kAJ-ZMQThqI9q0mJajA-31" value="" style="rounded=1;whiteSpace=wrap;html=1;" vertex="1" parent="1kAJ-ZMQThqI9q0mJajA-25">
          <mxGeometry x="217.5" y="207.38461538461536" width="157.5" height="20.738461538461536" as="geometry" />
        </mxCell>
        <mxCell id="1kAJ-ZMQThqI9q0mJajA-32" value="&lt;b&gt;New Password :&lt;/b&gt;" style="text;strokeColor=none;align=center;fillColor=none;html=1;verticalAlign=middle;whiteSpace=wrap;rounded=0;" vertex="1" parent="1kAJ-ZMQThqI9q0mJajA-25">
          <mxGeometry x="40" y="165.9076923076923" width="110" height="31.107692307692304" as="geometry" />
        </mxCell>
        <mxCell id="1kAJ-ZMQThqI9q0mJajA-33" value="" style="rounded=1;whiteSpace=wrap;html=1;" vertex="1" parent="1kAJ-ZMQThqI9q0mJajA-25">
          <mxGeometry x="217.5" y="171.0923076923077" width="157.5" height="20.738461538461536" as="geometry" />
        </mxCell>
        <mxCell id="1kAJ-ZMQThqI9q0mJajA-34" value="&lt;b&gt;Confrim New Password :&lt;/b&gt;" style="text;strokeColor=none;align=center;fillColor=none;html=1;verticalAlign=middle;whiteSpace=wrap;rounded=0;" vertex="1" parent="1kAJ-ZMQThqI9q0mJajA-25">
          <mxGeometry x="45" y="207.38461538461536" width="150" height="31.107692307692304" as="geometry" />
        </mxCell>
        <mxCell id="1kAJ-ZMQThqI9q0mJajA-35" value="" style="endArrow=classic;html=1;rounded=0;exitX=1.004;exitY=0.565;exitDx=0;exitDy=0;exitPerimeter=0;" edge="1" parent="1" source="1kAJ-ZMQThqI9q0mJajA-16">
          <mxGeometry width="50" height="50" relative="1" as="geometry">
            <mxPoint x="-832" y="-2841" as="sourcePoint" />
            <mxPoint x="-544" y="-2931" as="targetPoint" />
          </mxGeometry>
        </mxCell>
        <mxCell id="1kAJ-ZMQThqI9q0mJajA-36" value="" style="endArrow=classic;html=1;rounded=0;exitX=1;exitY=0.5;exitDx=0;exitDy=0;" edge="1" parent="1" source="1kAJ-ZMQThqI9q0mJajA-26">
          <mxGeometry width="50" height="50" relative="1" as="geometry">
            <mxPoint x="-158" y="-2918" as="sourcePoint" />
            <mxPoint x="181" y="-2954" as="targetPoint" />
          </mxGeometry>
        </mxCell>
        <mxCell id="1kAJ-ZMQThqI9q0mJajA-37" value="&lt;b&gt;&lt;font style=&quot;font-size: 14px;&quot;&gt;Login Page&lt;/font&gt;&lt;/b&gt;" style="rounded=1;whiteSpace=wrap;html=1;" vertex="1" parent="1">
          <mxGeometry x="182" y="-2982" width="120" height="60" as="geometry" />
        </mxCell>
        <mxCell id="1kAJ-ZMQThqI9q0mJajA-39" value="&lt;u style=&quot;font-size: 27px;&quot;&gt;&lt;b&gt;Dasboard&lt;/b&gt;&lt;/u&gt;&lt;div&gt;&lt;u style=&quot;font-size: 27px;&quot;&gt;&lt;b&gt;&lt;br&gt;&lt;/b&gt;&lt;/u&gt;&lt;/div&gt;&lt;div&gt;&lt;u style=&quot;font-size: 27px;&quot;&gt;&lt;b&gt;&lt;br&gt;&lt;/b&gt;&lt;/u&gt;&lt;/div&gt;&lt;div&gt;&lt;u style=&quot;font-size: 27px;&quot;&gt;&lt;b&gt;Login Page&amp;nbsp; &amp;nbsp; View Feedback&amp;nbsp; &amp;nbsp;View Query&amp;nbsp; &amp;nbsp; View P/L statment&lt;/b&gt;&lt;/u&gt;&lt;/div&gt;" style="rounded=0;whiteSpace=wrap;html=1;fillColor=#fff2cc;strokeColor=#d6b656;" vertex="1" parent="1">
          <mxGeometry x="-1560" y="-3440" width="1100" height="170" as="geometry" />
        </mxCell>
        <mxCell id="1kAJ-ZMQThqI9q0mJajA-47" value="" style="rounded=0;whiteSpace=wrap;html=1;" vertex="1" parent="1">
          <mxGeometry x="-866.96" y="-2520" width="760" height="570" as="geometry" />
        </mxCell>
        <mxCell id="1kAJ-ZMQThqI9q0mJajA-48" value="&lt;font style=&quot;font-size: 20px;&quot;&gt;Query&lt;/font&gt;" style="text;strokeColor=none;align=center;fillColor=none;html=1;verticalAlign=middle;whiteSpace=wrap;rounded=0;" vertex="1" parent="1">
          <mxGeometry x="-776.96" y="-2480" width="60" height="30" as="geometry" />
        </mxCell>
        <mxCell id="1kAJ-ZMQThqI9q0mJajA-49" value="" style="endArrow=none;html=1;rounded=0;exitX=0;exitY=0.25;exitDx=0;exitDy=0;entryX=1;entryY=0.25;entryDx=0;entryDy=0;" edge="1" parent="1" source="1kAJ-ZMQThqI9q0mJajA-47" target="1kAJ-ZMQThqI9q0mJajA-47">
          <mxGeometry width="50" height="50" relative="1" as="geometry">
            <mxPoint x="-56.960000000000036" y="-2400" as="sourcePoint" />
            <mxPoint x="-6.960000000000036" y="-2450" as="targetPoint" />
          </mxGeometry>
        </mxCell>
        <mxCell id="1kAJ-ZMQThqI9q0mJajA-50" value="" style="endArrow=none;html=1;rounded=0;entryX=0.19;entryY=1.008;entryDx=0;entryDy=0;entryPerimeter=0;" edge="1" parent="1" target="1kAJ-ZMQThqI9q0mJajA-47">
          <mxGeometry width="50" height="50" relative="1" as="geometry">
            <mxPoint x="-726.96" y="-2380" as="sourcePoint" />
            <mxPoint x="-6.960000000000036" y="-2450" as="targetPoint" />
          </mxGeometry>
        </mxCell>
        <mxCell id="1kAJ-ZMQThqI9q0mJajA-51" value="" style="endArrow=none;html=1;rounded=0;exitX=-0.004;exitY=0.388;exitDx=0;exitDy=0;exitPerimeter=0;entryX=1.005;entryY=0.388;entryDx=0;entryDy=0;entryPerimeter=0;" edge="1" parent="1" source="1kAJ-ZMQThqI9q0mJajA-47" target="1kAJ-ZMQThqI9q0mJajA-47">
          <mxGeometry width="50" height="50" relative="1" as="geometry">
            <mxPoint x="-56.960000000000036" y="-2400" as="sourcePoint" />
            <mxPoint x="-6.960000000000036" y="-2450" as="targetPoint" />
          </mxGeometry>
        </mxCell>
        <mxCell id="1kAJ-ZMQThqI9q0mJajA-52" value="&lt;font style=&quot;font-size: 20px;&quot;&gt;Mnager Id&lt;/font&gt;" style="text;strokeColor=none;align=center;fillColor=none;html=1;verticalAlign=middle;whiteSpace=wrap;rounded=0;" vertex="1" parent="1">
          <mxGeometry x="-850" y="-2360" width="113.04" height="30" as="geometry" />
        </mxCell>
        <mxCell id="1kAJ-ZMQThqI9q0mJajA-53" value="&lt;font style=&quot;font-size: 20px;&quot;&gt;Query decription&lt;/font&gt;" style="text;strokeColor=none;align=center;fillColor=none;html=1;verticalAlign=middle;whiteSpace=wrap;rounded=0;" vertex="1" parent="1">
          <mxGeometry x="-566.96" y="-2350" width="216.96" height="30" as="geometry" />
        </mxCell>
        <mxCell id="1kAJ-ZMQThqI9q0mJajA-54" value="" style="whiteSpace=wrap;html=1;aspect=fixed;" vertex="1" parent="1">
          <mxGeometry x="-1810" y="-1760" width="1000" height="1000" as="geometry" />
        </mxCell>
        <mxCell id="1kAJ-ZMQThqI9q0mJajA-55" value="&lt;b&gt;&lt;font style=&quot;font-size: 30px;&quot;&gt;Profit Loss Statemnet&lt;/font&gt;&lt;/b&gt;" style="text;strokeColor=none;align=center;fillColor=none;html=1;verticalAlign=middle;whiteSpace=wrap;rounded=0;" vertex="1" parent="1">
          <mxGeometry x="-1800" y="-1720" width="330" height="30" as="geometry" />
        </mxCell>
        <mxCell id="1kAJ-ZMQThqI9q0mJajA-59" value="" style="group" vertex="1" connectable="0" parent="1">
          <mxGeometry x="-1740" y="-2590" width="760" height="620" as="geometry" />
        </mxCell>
        <mxCell id="1kAJ-ZMQThqI9q0mJajA-40" value="" style="rounded=0;whiteSpace=wrap;html=1;" vertex="1" parent="1kAJ-ZMQThqI9q0mJajA-59">
          <mxGeometry y="50" width="760" height="570" as="geometry" />
        </mxCell>
        <mxCell id="1kAJ-ZMQThqI9q0mJajA-41" value="&lt;font style=&quot;font-size: 20px;&quot;&gt;Feedabcak&lt;/font&gt;" style="text;strokeColor=none;align=center;fillColor=none;html=1;verticalAlign=middle;whiteSpace=wrap;rounded=0;" vertex="1" parent="1kAJ-ZMQThqI9q0mJajA-59">
          <mxGeometry x="90" y="90" width="60" height="30" as="geometry" />
        </mxCell>
        <mxCell id="1kAJ-ZMQThqI9q0mJajA-42" value="" style="endArrow=none;html=1;rounded=0;exitX=0;exitY=0.25;exitDx=0;exitDy=0;entryX=1;entryY=0.25;entryDx=0;entryDy=0;" edge="1" parent="1kAJ-ZMQThqI9q0mJajA-59" source="1kAJ-ZMQThqI9q0mJajA-40" target="1kAJ-ZMQThqI9q0mJajA-40">
          <mxGeometry width="50" height="50" relative="1" as="geometry">
            <mxPoint x="810" y="170" as="sourcePoint" />
            <mxPoint x="860" y="120" as="targetPoint" />
          </mxGeometry>
        </mxCell>
        <mxCell id="1kAJ-ZMQThqI9q0mJajA-43" value="" style="endArrow=none;html=1;rounded=0;entryX=0.19;entryY=1.008;entryDx=0;entryDy=0;entryPerimeter=0;" edge="1" parent="1kAJ-ZMQThqI9q0mJajA-59" target="1kAJ-ZMQThqI9q0mJajA-40">
          <mxGeometry width="50" height="50" relative="1" as="geometry">
            <mxPoint x="140" y="190" as="sourcePoint" />
            <mxPoint x="860" y="120" as="targetPoint" />
          </mxGeometry>
        </mxCell>
        <mxCell id="1kAJ-ZMQThqI9q0mJajA-44" value="" style="endArrow=none;html=1;rounded=0;exitX=-0.004;exitY=0.388;exitDx=0;exitDy=0;exitPerimeter=0;entryX=1.005;entryY=0.388;entryDx=0;entryDy=0;entryPerimeter=0;" edge="1" parent="1kAJ-ZMQThqI9q0mJajA-59" source="1kAJ-ZMQThqI9q0mJajA-40" target="1kAJ-ZMQThqI9q0mJajA-40">
          <mxGeometry width="50" height="50" relative="1" as="geometry">
            <mxPoint x="810" y="170" as="sourcePoint" />
            <mxPoint x="860" y="120" as="targetPoint" />
          </mxGeometry>
        </mxCell>
        <mxCell id="1kAJ-ZMQThqI9q0mJajA-45" value="&lt;font style=&quot;font-size: 20px;&quot;&gt;User Id&lt;/font&gt;" style="text;strokeColor=none;align=center;fillColor=none;html=1;verticalAlign=middle;whiteSpace=wrap;rounded=0;" vertex="1" parent="1kAJ-ZMQThqI9q0mJajA-59">
          <mxGeometry x="40" y="210" width="90" height="30" as="geometry" />
        </mxCell>
        <mxCell id="1kAJ-ZMQThqI9q0mJajA-46" value="&lt;font style=&quot;font-size: 20px;&quot;&gt;Description&amp;nbsp;&lt;/font&gt;" style="text;strokeColor=none;align=center;fillColor=none;html=1;verticalAlign=middle;whiteSpace=wrap;rounded=0;" vertex="1" parent="1kAJ-ZMQThqI9q0mJajA-59">
          <mxGeometry x="300" y="220" width="60" height="30" as="geometry" />
        </mxCell>
        <mxCell id="1kAJ-ZMQThqI9q0mJajA-56" value="&lt;b&gt;&lt;font style=&quot;font-size: 30px;&quot;&gt;Feedaback Page&lt;/font&gt;&lt;/b&gt;" style="text;strokeColor=none;align=center;fillColor=none;html=1;verticalAlign=middle;whiteSpace=wrap;rounded=0;" vertex="1" parent="1kAJ-ZMQThqI9q0mJajA-59">
          <mxGeometry x="10" width="330" height="30" as="geometry" />
        </mxCell>
        <mxCell id="1kAJ-ZMQThqI9q0mJajA-60" value="" style="endArrow=classic;html=1;rounded=0;" edge="1" parent="1">
          <mxGeometry width="50" height="50" relative="1" as="geometry">
            <mxPoint x="-1340" y="-2960" as="sourcePoint" />
            <mxPoint x="-1250" y="-2960" as="targetPoint" />
          </mxGeometry>
        </mxCell>
        <mxCell id="1kAJ-ZMQThqI9q0mJajA-79" value="" style="endArrow=none;html=1;rounded=0;exitX=-0.002;exitY=0.146;exitDx=0;exitDy=0;exitPerimeter=0;entryX=0.996;entryY=0.146;entryDx=0;entryDy=0;entryPerimeter=0;" edge="1" parent="1" source="1kAJ-ZMQThqI9q0mJajA-54" target="1kAJ-ZMQThqI9q0mJajA-54">
          <mxGeometry width="50" height="50" relative="1" as="geometry">
            <mxPoint x="-1090" y="-1310" as="sourcePoint" />
            <mxPoint x="-1040" y="-1360" as="targetPoint" />
          </mxGeometry>
        </mxCell>
        <mxCell id="1kAJ-ZMQThqI9q0mJajA-80" value="&lt;b&gt;&lt;font style=&quot;font-size: 30px;&quot;&gt;P/L Statemnet&lt;/font&gt;&lt;/b&gt;" style="text;strokeColor=none;align=center;fillColor=none;html=1;verticalAlign=middle;whiteSpace=wrap;rounded=0;" vertex="1" parent="1">
          <mxGeometry x="-1820" y="-1820" width="330" height="30" as="geometry" />
        </mxCell>
        <mxCell id="1kAJ-ZMQThqI9q0mJajA-81" value="" style="endArrow=none;html=1;rounded=0;exitX=0.25;exitY=1;exitDx=0;exitDy=0;" edge="1" parent="1" source="1kAJ-ZMQThqI9q0mJajA-54">
          <mxGeometry width="50" height="50" relative="1" as="geometry">
            <mxPoint x="-1090" y="-1310" as="sourcePoint" />
            <mxPoint x="-1570" y="-1620" as="targetPoint" />
          </mxGeometry>
        </mxCell>
        <mxCell id="1kAJ-ZMQThqI9q0mJajA-86" value="" style="endArrow=none;html=1;rounded=0;exitX=0.58;exitY=1.005;exitDx=0;exitDy=0;exitPerimeter=0;" edge="1" parent="1">
          <mxGeometry width="50" height="50" relative="1" as="geometry">
            <mxPoint x="-1210" y="-760" as="sourcePoint" />
            <mxPoint x="-1210" y="-1615" as="targetPoint" />
          </mxGeometry>
        </mxCell>
        <mxCell id="1kAJ-ZMQThqI9q0mJajA-87" value="" style="endArrow=none;html=1;rounded=0;exitX=-0.002;exitY=0.226;exitDx=0;exitDy=0;exitPerimeter=0;entryX=1.001;entryY=0.226;entryDx=0;entryDy=0;entryPerimeter=0;" edge="1" parent="1" source="1kAJ-ZMQThqI9q0mJajA-54" target="1kAJ-ZMQThqI9q0mJajA-54">
          <mxGeometry width="50" height="50" relative="1" as="geometry">
            <mxPoint x="-1090" y="-1190" as="sourcePoint" />
            <mxPoint x="-1040" y="-1240" as="targetPoint" />
          </mxGeometry>
        </mxCell>
        <mxCell id="1kAJ-ZMQThqI9q0mJajA-88" value="&lt;b&gt;&lt;font style=&quot;font-size: 30px;&quot;&gt;Profit&amp;nbsp;&lt;/font&gt;&lt;/b&gt;" style="text;strokeColor=none;align=center;fillColor=none;html=1;verticalAlign=middle;whiteSpace=wrap;rounded=0;" vertex="1" parent="1">
          <mxGeometry x="-1800" y="-1590" width="210" height="30" as="geometry" />
        </mxCell>
        <mxCell id="1kAJ-ZMQThqI9q0mJajA-90" value="&lt;b&gt;&lt;font style=&quot;font-size: 30px;&quot;&gt;Loss&lt;/font&gt;&lt;/b&gt;" style="text;strokeColor=none;align=center;fillColor=none;html=1;verticalAlign=middle;whiteSpace=wrap;rounded=0;" vertex="1" parent="1">
          <mxGeometry x="-1530" y="-1580" width="210" height="30" as="geometry" />
        </mxCell>
        <mxCell id="1kAJ-ZMQThqI9q0mJajA-91" value="&lt;b&gt;&lt;font style=&quot;font-size: 30px;&quot;&gt;Total Revenue&lt;/font&gt;&lt;/b&gt;" style="text;strokeColor=none;align=center;fillColor=none;html=1;verticalAlign=middle;whiteSpace=wrap;rounded=0;" vertex="1" parent="1">
          <mxGeometry x="-1130" y="-1590" width="210" height="30" as="geometry" />
        </mxCell>
        <mxCell id="1kAJ-ZMQThqI9q0mJajA-57" value="&lt;b&gt;&lt;font style=&quot;font-size: 30px;&quot;&gt;Query Page&lt;/font&gt;&lt;/b&gt;" style="text;strokeColor=none;align=center;fillColor=none;html=1;verticalAlign=middle;whiteSpace=wrap;rounded=0;" vertex="1" parent="1">
          <mxGeometry x="-860" y="-2590" width="330" height="30" as="geometry" />
        </mxCell>
      </root>
    </mxGraphModel>
  </diagram>
</mxfile>
